Coordinates
version=1
nRows=26
nColumns=38
inDegrees=no

Units are S.I. units (second, meters, Newtons, ...)
If the header above contains a line with 'inDegrees', this indicates whether rotational values are in degrees (yes) or radians (no).

endheader
time	pelvis_tilt	pelvis_list	pelvis_rotation	pelvis_tx	pelvis_ty	pelvis_tz	hip_flexion_r	hip_adduction_r	hip_rotation_r	knee_angle_r	ankle_angle_r	subtalar_angle_r	mtp_angle_r	hip_flexion_l	hip_adduction_l	hip_rotation_l	knee_angle_l	ankle_angle_l	subtalar_angle_l	mtp_angle_l	lumbar_extension	lumbar_bending	lumbar_rotation	arm_flex_r	arm_add_r	arm_rot_r	elbow_flex_r	pro_sup_r	wrist_flex_r	wrist_dev_r	arm_flex_l	arm_add_l	arm_rot_l	elbow_flex_l	pro_sup_l	wrist_flex_l	wrist_dev_l
2.96	0.0178946	-0.00817283	-0.0472377	0.951625	0.983082	-0.315068	-0.271386	0.0145202	-0.016718	-0.527549	-0.318751	-0.00669168	8.85539e-05	0.378255	0.0437005	-0.128176	-0.310179	-0.00649901	-0.0202147	0.000200687	-0.270259	-0.0175103	0.226264	-0.278065	-0.496212	-0.0281855	2.07301	1.52159	0.0517438	0.0158145	-0.65632	-0.24894	-0.107393	2.052	2.00667	0.079674	-0.0283897
2.97	0.026183	-0.0105144	-0.046601	0.953263	0.979375	-0.315883	-0.255675	0.0104209	-0.0196726	-0.599317	-0.346455	-0.00669168	8.85539e-05	0.371271	0.0440921	-0.127952	-0.347797	-0.00651479	-0.0202147	0.000200687	-0.277728	-0.0151699	0.217946	-0.283019	-0.49534	-0.0276072	2.07287	1.52374	0.0517438	0.0158145	-0.65184	-0.243979	-0.115153	2.05926	2.002	0.079674	-0.0283897
2.98	0.0371119	-0.00977094	-0.0441521	0.954628	0.975327	-0.316908	-0.238324	0.00195099	-0.0280364	-0.676683	-0.367772	-0.00669168	8.85539e-05	0.365296	0.0477159	-0.126005	-0.398193	0.00244874	-0.0202147	0.000200687	-0.288736	-0.0156715	0.20548	-0.287597	-0.492839	-0.0270993	2.06921	1.52696	0.0517438	0.0158145	-0.643756	-0.2414	-0.121646	2.06529	1.99637	0.079674	-0.0283897
2.99	0.0502075	-0.00576925	-0.0399487	0.95568	0.971211	-0.318108	-0.219466	-0.0110654	-0.0412371	-0.757794	-0.380882	-0.00669168	8.85539e-05	0.359469	0.0548836	-0.122202	-0.456976	0.0211797	-0.0202147	0.000200687	-0.302839	-0.0191733	0.189191	-0.292058	-0.488458	-0.0269074	2.06145	1.53185	0.0517438	0.0158145	-0.631556	-0.241527	-0.126427	2.06922	1.99082	0.079674	-0.0283897
3	0.064742	0.00127083	-0.0343819	0.956362	0.967208	-0.319392	-0.198909	-0.0281742	-0.0577351	-0.840773	-0.384357	-0.00669168	8.85539e-05	0.352844	0.0653745	-0.116879	-0.519386	0.0489814	-0.0202147	0.000200687	-0.319254	-0.0254965	0.169882	-0.296779	-0.482049	-0.0272167	2.04909	1.53881	0.0517438	0.0158145	-0.614821	-0.244528	-0.12907	2.07021	1.98674	0.079674	-0.0283897
3.01	0.0797948	0.0107627	-0.0281159	0.956643	0.963368	-0.320672	-0.176172	-0.0483072	-0.0752755	-0.923761	-0.377615	-0.00669168	8.85539e-05	0.344562	0.078482	-0.110713	-0.580825	0.0839527	-0.0202147	0.000200687	-0.336935	-0.0341449	0.148729	-0.302197	-0.473607	-0.0281191	2.03181	1.548	0.0517438	0.0158145	-0.593299	-0.250379	-0.129227	2.06756	1.98573	0.079674	-0.0283897
3.02	0.0943567	0.0218669	-0.021964	0.95653	0.959701	-0.321871	-0.150621	-0.06992	-0.091325	-1.00496	-0.361162	-0.00669168	8.85539e-05	0.334	0.0931455	-0.104518	-0.637392	0.123543	-0.0202147	0.000200687	-0.354717	-0.0443604	0.127091	-0.308734	-0.463294	-0.0295932	2.00958	1.55921	0.0517438	0.0158145	-0.566969	-0.258849	-0.126696	2.06089	1.98944	0.079674	-0.0283897
3.03	0.107513	0.0335522	-0.0166964	0.956062	0.956249	-0.322897	-0.121625	-0.0912283	-0.103582	-1.08265	-0.336511	-0.00669168	8.85539e-05	0.320887	0.108145	-0.0989944	-0.686298	0.165127	-0.0202147	0.000200687	-0.371467	-0.0552244	0.106253	-0.316707	-0.451439	-0.0315016	1.98268	1.57183	0.0517438	0.0158145	-0.536078	-0.269516	-0.121456	2.05026	1.99922	0.079674	-0.0283897
3.04	0.11855	0.0447648	-0.0128521	0.955292	0.953102	-0.323684	-0.0887505	-0.110473	-0.110437	-1.15526	-0.30584	-0.00669168	8.85539e-05	0.305272	0.1223	-0.0945286	-0.725992	0.206406	-0.0202147	0.000200687	-0.386257	-0.0657506	0.0871716	-0.32628	-0.438504	-0.0336107	1.9518	1.58492	0.0517438	0.0158145	-0.501152	-0.281806	-0.113679	2.03625	2.01575	0.079674	-0.0283897
3.05	0.127033	0.0545877	-0.0106081	0.95429	0.950357	-0.324238	-0.0519206	-0.126172	-0.111241	-1.22138	-0.271532	-0.00669168	8.85539e-05	0.287393	0.134643	-0.0910913	-0.756002	0.245588	-0.0202147	0.000200687	-0.398488	-0.0749988	0.0703027	-0.337444	-0.425017	-0.0356376	1.91796	1.59732	0.0517438	0.0158145	-0.462966	-0.295086	-0.103689	2.01989	2.03875	0.079674	-0.0283897
3.06	0.132853	0.0623674	-0.00974879	0.953131	0.948093	-0.324617	-0.0114664	-0.137318	-0.106341	-1.2798	-0.235746	-0.00669168	8.85539e-05	0.267529	0.144548	-0.0882687	-0.776597	0.28142	-0.0202147	0.000200687	-0.407914	-0.0821908	0.0555632	-0.350076	-0.411479	-0.0373265	1.8825	1.60794	0.0517438	0.0158145	-0.422483	-0.308752	-0.0918962	2.00255	2.06692	0.079674	-0.0283897
3.07	0.136142	0.067767	-0.00974857	0.951881	0.946375	-0.324883	0.0319074	-0.143456	-0.09689	-1.32953	-0.200158	-0.00669168	8.85539e-05	0.245878	0.151748	-0.0853965	-0.788428	0.313135	-0.0202147	0.000200687	-0.414615	-0.0867833	0.0424434	-0.364022	-0.398286	-0.0385297	1.84696	1.61593	0.0517438	0.0158145	-0.38076	-0.322329	-0.0787079	1.98582	2.09794	0.079674	-0.0283897
3.08	0.137181	0.0707198	-0.00991213	0.950592	0.945253	-0.325094	0.0772491	-0.144671	-0.0845499	-1.36982	-0.165895	-0.00669168	8.85539e-05	0.222531	0.156273	-0.0817506	-0.79226	0.340352	-0.0202147	0.000200687	-0.418863	-0.0884885	0.0302215	-0.379185	-0.385679	-0.0392719	1.813	1.62079	0.0517438	0.0158145	-0.338857	-0.335508	-0.0644574	1.97126	2.12879	0.079674	-0.0283897
3.09	0.136308	0.0713494	-0.00953754	0.949311	0.944757	-0.325297	0.123497	-0.141472	-0.0711875	-1.40016	-0.133636	-0.00669168	8.85539e-05	0.197507	0.158316	-0.0767222	-0.788824	0.362956	-0.0202147	0.000200687	-0.421	-0.0872176	0.0181883	-0.395571	-0.373754	-0.0397618	1.78221	1.62232	0.0517438	0.0158145	-0.297756	-0.348133	-0.0493823	1.96021	2.15612	0.079674	-0.0283897
3.1	0.133833	0.0698638	-0.0080548	0.948082	0.944892	-0.325527	0.169636	-0.134633	-0.0586178	-1.4202	-0.103764	-0.00669168	8.85539e-05	0.170846	0.158086	-0.0699545	-0.778792	0.380962	-0.0202147	0.000200687	-0.421296	-0.0829975	0.00582651	-0.41328	-0.362501	-0.0403448	1.75594	1.62061	0.0517438	0.0158145	-0.25833	-0.360136	-0.0336666	1.95369	2.17697	0.079674	-0.0283897
3.11	0.129985	0.066447	-0.00512204	0.946955	0.945638	-0.325805	0.214786	-0.125031	-0.0484087	-1.42977	-0.076524	-0.00669168	8.85539e-05	0.142687	0.155707	-0.0614287	-0.762803	0.394376	-0.0202147	0.000200687	-0.419898	-0.0759135	-0.00709525	-0.432436	-0.351872	-0.0414147	1.73517	1.61593	0.0517438	0.0158145	-0.221323	-0.371463	-0.0175043	1.95226	2.18925	0.079674	-0.0283897
3.12	0.124903	0.0612072	-0.000675558	0.945978	0.94696	-0.326135	0.258239	-0.113506	-0.0417489	-1.42878	-0.0521103	-0.00669168	8.85539e-05	0.113289	0.151183	-0.0514889	-0.741502	0.403087	-0.0202147	0.000200687	-0.41684	-0.0660809	-0.0205087	-0.453101	-0.34183	-0.0433169	1.72037	1.6087	0.0517438	0.0158145	-0.187341	-0.382019	-0.00115047	1.9561	2.19196	0.079674	-0.0283897
3.13	0.118666	0.0541767	0.00507472	0.945192	0.948811	-0.326504	0.299425	-0.100749	-0.0393752	-1.41719	-0.0307018	-0.00669168	8.85539e-05	0.0830079	0.144419	-0.0408068	-0.715565	0.406794	-0.0202147	0.000200687	-0.412115	-0.0536493	-0.0340966	-0.475194	-0.33237	-0.0462761	1.71147	1.59948	0.0517438	0.0158145	-0.156843	-0.391663	0.01506	1.96498	2.18527	0.079674	-0.0283897
3.14	0.111351	0.0453512	0.0117028	0.944621	0.951134	-0.326885	0.33786	-0.0872385	-0.0415559	-1.39498	-0.0124372	-0.00669168	8.85539e-05	0.0522364	0.13528	-0.030286	-0.6857	0.405018	-0.0202147	0.000200687	-0.40575	-0.0388248	-0.0473835	-0.498455	-0.323514	-0.0503634	1.70792	1.58897	0.0517438	0.0158145	-0.130126	-0.400237	0.030732	1.97832	2.17035	0.079674	-0.0283897
3.15	0.103075	0.0347506	0.0186596	0.944277	0.95387	-0.327235	0.373079	-0.0732352	-0.0481178	-1.3621	0.00263212	-0.00669168	8.85539e-05	0.0213347	0.123682	-0.0209311	-0.652643	0.39718	-0.0202147	0.000200687	-0.397865	-0.0219007	-0.0598435	-0.522461	-0.315268	-0.0555013	1.70876	1.57793	0.0517438	0.0158145	-0.107324	-0.407614	0.0454452	1.99535	2.14917	0.079674	-0.0283897
3.16	0.0940228	0.0224849	0.0253696	0.944163	0.956966	-0.3275	0.404602	-0.0588193	-0.0584981	-1.31857	0.014585	-0.00669168	8.85539e-05	-0.00942225	0.109666	-0.0137126	-0.617132	0.382725	-0.0202147	0.000200687	-0.388697	-0.00328645	-0.0710009	-0.546671	-0.307601	-0.0614912	1.71283	1.56713	0.0517438	0.0158145	-0.0884412	-0.413736	0.0587864	2.01517	2.12431	0.079674	-0.0283897
3.17	0.084444	0.00879857	0.0313151	0.944281	0.960363	-0.327629	0.431927	-0.0439517	-0.0717999	-1.26446	0.0236466	-0.00669168	8.85539e-05	-0.0398589	0.0934617	-0.0094141	-0.579912	0.361262	-0.0202147	0.000200687	-0.378582	0.0164836	-0.0805042	-0.570503	-0.300426	-0.0680478	1.71893	1.55719	0.0517438	0.0158145	-0.0733896	-0.418624	0.0703852	2.03686	2.09842	0.079674	-0.0283897
3.18	0.0746355	-0.00589788	0.0360902	0.94463	0.963996	-0.327585	0.454567	-0.0285567	-0.0868594	-1.20003	0.0301893	-0.00669168	8.85539e-05	-0.0698857	0.0755192	-0.00851428	-0.541744	0.332686	-0.0202147	0.000200687	-0.367918	0.036756	-0.0881697	-0.593402	-0.293617	-0.0748421	1.72593	1.54853	0.0517438	0.0158145	-0.0620339	-0.422372	0.0799417	2.05957	2.07402	0.079674	-0.0283897
3.19	0.0649106	-0.0210257	0.0394351	0.945211	0.967786	-0.327339	0.4721	-0.0126126	-0.102337	-1.12583	0.0347185	-0.00669168	8.85539e-05	-0.0994637	0.0565066	-0.0111094	-0.503433	0.297259	-0.0202147	0.000200687	-0.35712	0.0567783	-0.0939942	-0.614893	-0.287033	-0.0815449	1.73296	1.54139	0.0517438	0.0158145	-0.0542105	-0.425125	0.0872637	2.08259	2.05304	0.079674	-0.0283897
3.2	0.0555736	-0.0358909	0.0412561	0.946023	0.971635	-0.326868	0.48423	0.00376382	-0.11684	-1.04286	0.0378381	-0.00669168	8.85539e-05	-0.128539	0.0372785	-0.0168831	-0.465888	0.255655	-0.0202147	0.000200687	-0.34658	0.0757287	-0.0981488	-0.634623	-0.280548	-0.0878581	1.7394	1.53592	0.0517438	0.0158145	-0.0497315	-0.427059	0.092289	2.10537	2.03677	0.079674	-0.0283897
3.21	0.0468952	-0.0497259	0.0416247	0.947069	0.975431	-0.326174	0.490868	0.0202646	-0.129093	-0.952661	0.04019	-0.00669168	8.85539e-05	-0.156955	0.0187974	-0.0251281	-0.430195	0.208971	-0.0202147	0.000200687	-0.336617	0.0927782	-0.100952	-0.652366	-0.274077	-0.0935336	1.74494	1.53215	0.0517438	0.0158145	-0.0483768	-0.428368	0.095094	2.12745	2.02574	0.079674	-0.0283897
